<svg xmlns="http://www.w3.org/2000/svg" width="64" height="64" fill="none"><rect width="64" height="64" fill="#1C1C1C" rx="32"/><g filter="url(#a)"><path fill="#fff" d="m43.732 29.87-3.408-1.278c-.29-1.299-1.017-2.045-1.017-2.045a4.681 4.681 0 0 0-1.52-1.028 4.639 4.639 0 0 0-5.106 1.028l-1.654 1.673-7.409-7.954c-1.117 4.519 0 9.038 2.738 12.676l-6.09 5.966s9.934 2.26 15.722-2.316c3.084-2.44 3.777-3.864 4.213-5.367l3.531-1.356Zm-5.911.248a1.118 1.118 0 0 1-1.829-.366 1.136 1.136 0 0 1 .242-1.227 1.118 1.118 0 0 1 1.587 0c.436.44.436 1.152 0 1.593Z"/></g><defs><filter id="a" width="57.065" height="52.803" x="3.466" y="7.466" color-interpolation-filters="sRGB" filterUnits="userSpaceOnUse"><feFlood flood-opacity="0" result="BackgroundImageFix"/><feColorMatrix in="SourceAlpha" result="hardAlpha" values="0 0 0 0 0 0 0 0 0 0 0 0 0 0 0 0 0 0 127 0"/><feOffset dy="4"/><feGaussianBlur stdDeviation="8.4"/><feComposite in2="hardAlpha" operator="out"/><feColorMatrix values="0 0 0 0 0 0 0 0 0 0 0 0 0 0 0 0 0 0 1 0"/><feBlend in2="BackgroundImageFix" result="effect1_dropShadow_822_2968"/><feBlend in="SourceGraphic" in2="effect1_dropShadow_822_2968" result="shape"/></filter></defs></svg>